<?xml version="1.0" standalone="no"?>
<!DOCTYPE svg PUBLIC "-//W3C//DTD SVG 20010904//EN"
 "http://www.w3.org/TR/2001/REC-SVG-20010904/DTD/svg10.dtd">
<svg version="1.0" xmlns="http://www.w3.org/2000/svg"
 width="450.000000pt" height="450.000000pt" viewBox="0 0 450.000000 450.000000"
 preserveAspectRatio="xMidYMid meet">
<metadata>
Created by potrace 1.10, written by Peter Selinger 2001-2011
</metadata>
<g transform="translate(0.000000,450.000000) scale(0.050000,-0.050000)"
fill="#000000" stroke="none">
<path d="M4080 8538 c-1642 -166 -3094 -1431 -3498 -3048 -100 -404 -111 -499
-111 -1020 0 -558 44 -867 179 -1260 126 -365 229 -589 399 -868 1495 -2461
5060 -2640 6766 -341 2147 2897 -139 6899 -3735 6537z m1160 -87 c1559 -272
2832 -1454 3219 -2991 100 -399 111 -497 110 -1010 -1 -560 -56 -903 -210
-1310 -23 -60 -49 -132 -58 -160 -31 -97 -175 -391 -258 -527 -45 -75 -83
-141 -83 -145 0 -4 -33 -55 -74 -113 -803 -1134 -1983 -1755 -3336 -1755
-2851 0 -4791 2845 -3757 5507 685 1763 2577 2829 4447 2504z"/>
<path d="M4140 8100 c-115 -20 -325 -48 -465 -62 -159 -16 -253 -34 -249 -47
7 -21 1466 -20 1539 2 19 5 189 0 378 -13 322 -21 492 -5 325 30 -32 7 -107
25 -168 40 -386 98 -953 119 -1360 50z"/>
<path d="M4050 7729 c-211 -31 -536 -112 -644 -160 -42 -18 -94 -40 -116 -49
-953 -376 -1731 -1287 -1957 -2290 -78 -347 -89 -442 -84 -780 26 -1865 1447
-3271 3311 -3276 608 -2 910 68 1478 341 641 309 1268 962 1523 1586 34 82 70
167 80 189 166 366 260 1071 201 1520 -250 1914 -1918 3198 -3792 2919z m975
-58 c1630 -268 2743 -1566 2743 -3201 0 -2939 -3508 -4343 -5564 -2227 -1292
1330 -1156 3546 290 4722 707 575 1678 846 2531 706z"/>
<path d="M3586 6780 c-180 -47 -252 -84 -303 -156 -56 -78 -76 -164 -39 -164
50 0 224 65 276 103 92 68 405 117 481 76 88 -47 8 -135 -173 -192 -129 -41
-154 -26 -82 49 150 156 5 120 -176 -44 -44 -39 -100 -72 -124 -72 -69 0 -146
-36 -146 -70 0 -16 13 -30 29 -30 54 0 52 -38 -9 -136 -167 -273 97 -432 436
-263 313 157 292 355 -41 396 -153 19 -141 55 29 83 281 47 424 151 412 296
-13 159 -246 209 -570 124z m167 -585 c169 -55 50 -185 -171 -185 -168 0 -192
32 -114 151 61 92 96 96 285 34z"/>
<path d="M5696 6665 c-153 -147 -288 -325 -352 -465 -53 -119 -135 -220 -178
-220 -49 0 -26 94 44 182 203 256 19 256 -225 -1 -133 -140 -172 -133 -55 10
78 96 85 119 37 137 -51 20 -122 -39 -190 -160 -70 -124 -173 -193 -232 -156
-57 37 -49 63 54 177 116 128 131 191 45 191 -66 0 -159 -89 -221 -212 -72
-144 -220 -236 -251 -156 -29 75 -8 122 109 238 185 183 312 486 212 506 -142
29 -497 -554 -463 -759 32 -186 128 -196 302 -33 l63 59 14 -56 c33 -132 128
-145 251 -35 64 58 82 66 90 40 5 -18 14 -45 19 -62 18 -55 60 -30 158 92 109
137 133 140 83 11 -67 -176 32 -228 178 -93 104 96 112 97 112 20 0 -39 10
-60 29 -60 16 0 45 27 64 60 34 57 87 82 87 42 0 -40 106 -142 147 -142 50 0
313 228 313 272 0 47 -30 33 -133 -62 -104 -96 -146 -109 -189 -57 -24 28 -21
37 21 65 205 135 291 322 147 322 -52 0 -292 -175 -313 -229 -13 -33 -93 -81
-93 -55 0 9 95 127 210 262 238 276 320 390 301 421 -27 43 -77 18 -195 -94z
m-1287 -130 c-22 -74 -157 -275 -185 -275 -30 0 -15 34 93 205 75 118 116 149
92 70z m1249 -407 c-64 -66 -150 -94 -133 -43 4 14 48 55 96 92 107 82 132 49
37 -49z"/>
<path d="M4708 6530 c-56 -57 -57 -116 -1 -127 52 -10 113 54 113 120 0 72
-44 75 -112 7z"/>
<path d="M3172 5167 c-109 -33 -412 -202 -412 -230 0 -26 26 -21 128 24 335
149 619 111 1058 -141 97 -56 184 -96 194 -90 23 14 -27 160 -55 160 -11 0
-37 20 -58 45 -40 48 -355 193 -517 237 -126 35 -214 33 -338 -5z"/>
<path d="M5540 5173 c-146 -43 -479 -195 -506 -232 -13 -18 -39 -39 -58 -46
-32 -12 -73 -145 -51 -167 5 -5 106 44 223 109 429 239 660 268 1008 129 236
-93 166 -6 -108 135 -183 94 -349 118 -508 72z"/>
<path d="M3396 4751 c-94 -24 -256 -121 -256 -154 0 -31 54 -18 162 38 198
103 407 75 604 -80 115 -90 118 -43 4 57 -153 136 -334 185 -514 139z"/>
<path d="M5449 4734 c-7 -19 -28 -34 -46 -34 -55 -1 -209 -79 -268 -135 -87
-83 -65 -89 50 -14 57 38 118 70 135 71 140 10 223 8 245 -5 19 -13 18 -17 -5
-20 -184 -21 -201 -25 -310 -81 -144 -74 -380 -334 -306 -337 54 -2 290 -37
370 -55 46 -10 125 -12 175 -4 51 8 97 6 103 -3 18 -29 48 -18 49 18 0 32 3
32 29 -3 28 -37 29 -36 47 11 25 65 86 116 98 82 5 -14 27 -25 49 -25 34 0 37
5 16 30 -41 49 39 38 94 -13 38 -37 46 -39 46 -11 0 18 -27 53 -60 77 -78 58
-76 69 19 85 54 8 76 21 70 38 -6 15 24 54 65 88 80 64 163 186 128 186 -12 0
-41 -27 -65 -60 -25 -33 -52 -60 -62 -60 -10 0 1 24 24 53 58 75 58 159 -1 88
l-41 -49 14 54 c24 96 -26 58 -61 -46 -30 -92 -70 -150 -70 -102 0 11 7 24 16
30 21 13 5 152 -18 152 -10 0 -18 -20 -18 -45 0 -25 -9 -58 -20 -75 -15 -23
-19 -14 -20 35 0 77 -30 86 -48 15 -21 -83 -79 -65 -63 20 8 44 5 70 -8 70
-12 0 -21 -17 -21 -39 0 -62 -36 -67 -46 -6 -8 53 -9 54 -24 9 -9 -29 -27 -42
-47 -36 -18 5 -64 15 -103 23 -38 8 -76 24 -84 36 -9 14 -19 10 -27 -13z m-89
-300 c0 -14 -10 -36 -23 -49 -33 -33 -5 -85 46 -85 60 0 117 56 117 115 0 66
48 48 56 -21 9 -73 -74 -154 -156 -154 -115 0 -209 149 -125 198 49 29 85 27
85 -4z m322 -5 c217 -112 -142 -294 -468 -238 -222 39 -217 34 -134 119 84 86
85 86 126 -1 94 -196 394 -123 394 96 0 64 3 65 82 24z"/>
<path d="M3020 4626 c0 -9 23 -50 50 -90 93 -137 2 -205 -180 -136 -71 27
-110 1 -48 -31 90 -46 171 -53 248 -20 98 41 110 38 53 -10 -53 -44 -221 -54
-314 -18 -83 31 -87 2 -10 -63 58 -48 88 -58 176 -58 67 0 103 -8 95 -20 -7
-11 -41 -20 -76 -20 -78 -1 -140 -32 -93 -47 16 -6 52 -9 79 -7 38 3 49 -5 44
-31 -11 -64 204 -24 260 49 40 53 46 40 14 -31 -12 -27 -44 -60 -70 -74 -52
-28 -67 -71 -18 -51 17 7 44 17 60 24 21 9 30 -1 30 -32 0 -39 4 -41 32 -19
26 22 34 22 50 -2 23 -37 93 42 111 126 7 30 20 55 30 55 26 0 21 -43 -13
-107 -17 -32 -30 -68 -30 -80 0 -42 83 61 109 136 14 42 31 67 37 57 7 -10 -1
-44 -17 -75 -16 -30 -29 -69 -29 -86 0 -47 55 7 103 101 22 43 44 73 50 68 5
-6 -4 -38 -22 -71 -42 -83 -39 -91 18 -49 27 20 55 61 62 91 13 58 49 76 49
25 0 -47 37 -35 44 15 5 39 18 45 94 45 49 0 92 10 96 22 11 33 -132 50 -289
36 -263 -25 -500 73 -662 272 -88 109 -123 139 -123 106z"/>
<path d="M2784 3274 c-68 -69 -124 -131 -124 -138 0 -28 159 -176 188 -176 49
0 38 42 -29 111 l-61 63 109 100 c86 78 105 106 90 132 -28 50 -37 45 -173
-92z"/>
<path d="M6266 3320 c-6 -22 -19 -40 -29 -40 -10 0 -23 -13 -29 -28 -13 -33
133 -192 176 -192 60 0 55 29 -18 104 -66 68 -72 82 -50 117 26 42 17 79 -19
79 -11 0 -25 -18 -31 -40z"/>
<path d="M6038 3102 c-61 -61 -71 -92 -39 -111 11 -7 34 11 52 38 19 28 42 51
51 51 29 0 21 -53 -12 -80 -42 -35 -37 -115 8 -139 33 -18 117 28 198 109 15
15 -152 190 -181 190 -10 0 -44 -26 -77 -58z m151 -149 c-16 -39 -69 -45 -69
-7 0 37 45 77 65 57 9 -9 11 -31 4 -50z"/>
<path d="M3034 3067 c-21 -20 26 -67 67 -67 20 0 41 -8 47 -17 21 -34 -13 -39
-88 -13 -69 24 -80 23 -110 -10 -41 -45 -24 -113 32 -131 22 -6 57 -31 78 -54
l39 -41 20 48 c11 26 40 72 63 101 78 97 -62 270 -148 184z m62 -184 c6 -18
-6 -24 -37 -20 -25 4 -50 19 -55 34 -6 18 6 24 37 20 25 -4 50 -19 55 -34z"/>
<path d="M5695 2986 c-115 -64 -115 -58 -10 -239 99 -171 87 -167 213 -77 138
100 152 192 34 221 -33 9 -45 23 -38 48 25 96 -70 119 -199 47z m133 -43 c15
-24 -45 -103 -80 -103 -16 0 -35 15 -42 33 -20 52 93 117 122 70z m90 -121
c22 -15 18 -28 -24 -70 -64 -63 -87 -65 -105 -9 -22 68 64 120 129 79z"/>
<path d="M3293 2890 c-48 -35 -41 -90 21 -154 29 -30 49 -59 45 -63 -19 -18
-99 28 -99 56 0 33 -50 43 -69 13 -40 -66 137 -158 209 -108 52 36 51 50 -10
122 -69 82 -63 124 8 56 70 -67 109 -33 42 38 -55 58 -104 72 -147 40z"/>
<path d="M3591 2815 c-15 -36 -46 -108 -69 -162 -49 -114 -53 -153 -13 -153
16 0 47 41 69 90 29 65 51 90 81 90 48 0 53 -47 11 -120 -40 -70 -37 -120 6
-120 25 0 46 31 73 108 43 129 33 169 -49 185 -65 13 -73 26 -37 62 25 25 9
85 -23 85 -12 0 -34 -29 -49 -65z"/>
<path d="M5347 2819 c-33 -33 92 -359 138 -359 48 0 43 42 -23 219 -58 153
-78 177 -115 140z"/>
<path d="M5200 2739 c0 -52 66 -46 76 6 5 24 -6 35 -35 35 -28 0 -41 -13 -41
-41z"/>
<path d="M4093 2691 c-25 -19 -32 -41 -23 -71 10 -31 0 -55 -38 -90 -104 -97
-18 -232 127 -200 33 7 63 3 70 -9 7 -11 26 -21 42 -21 35 0 39 73 4 86 -20 7
-20 14 0 36 38 39 31 55 -28 62 -66 7 -84 47 -28 62 42 10 56 80 25 127 -24
39 -111 49 -151 18z m58 -256 c14 -56 0 -66 -59 -43 -38 15 -42 70 -8 104 29
29 49 11 67 -61z"/>
<path d="M4787 2675 c-8 -12 -12 -73 -10 -134 l4 -111 -81 125 c-118 182 -140
170 -140 -76 0 -182 4 -201 35 -195 27 5 37 33 45 123 l10 116 67 -111 c108
-179 144 -159 140 77 -4 182 -30 251 -70 186z"/>
<path d="M5248 2616 c31 -157 55 -216 85 -216 38 0 30 87 -20 206 -39 93 -83
100 -65 10z"/>
<path d="M4971 2588 c-43 -43 -9 -88 37 -50 17 14 46 22 66 17 28 -6 20 -18
-39 -53 -130 -79 -94 -175 58 -153 130 20 128 15 89 146 -38 129 -133 171
-211 93z m149 -139 c0 -33 -45 -57 -82 -45 -16 5 -12 19 11 42 42 42 71 44 71
3z"/>
<path d="M993 5535 c-14 -136 -42 -337 -72 -525 -72 -439 -77 -958 -13 -1244
65 -289 110 -471 121 -482 28 -28 14 185 -19 286 -87 263 -146 960 -93 1090
17 43 21 32 22 -70 2 -66 15 -174 31 -240 16 -66 30 -172 30 -235 0 -71 9
-115 22 -115 31 0 15 385 -17 424 -40 48 -40 603 0 736 34 116 48 500 18 500
-10 0 -23 -56 -30 -125z"/>
<path d="M8065 5460 c4 -49 33 -197 64 -328 76 -327 68 -841 -19 -1162 -65
-243 -65 -239 -41 -246 22 -7 91 219 91 297 0 28 11 62 24 75 34 34 36 924 3
1024 -13 39 -39 142 -58 230 -40 184 -77 248 -64 110z"/>
<path d="M3620 946 c0 -10 88 -34 195 -54 107 -20 240 -46 295 -58 304 -67
1470 22 1470 111 0 21 -301 11 -721 -22 -166 -13 -327 -14 -470 -1 -350 31
-769 44 -769 24z"/>
</g>
</svg>
