<?xml version="1.0" encoding="UTF-8"?>
<!DOCTYPE svg PUBLIC "-//W3C//DTD SVG 1.1//EN" "http://www.w3.org/Graphics/SVG/1.1/DTD/svg11.dtd">
<svg version="1.2" width="159.01mm" height="159.01mm" viewBox="0 0 15901 15901" preserveAspectRatio="xMidYMid" fill-rule="evenodd" stroke-width="28.222" stroke-linejoin="round" xmlns="http://www.w3.org/2000/svg" xmlns:ooo="http://xml.openoffice.org/svg/export" xmlns:xlink="http://www.w3.org/1999/xlink" xmlns:presentation="http://sun.com/xmlns/staroffice/presentation" xmlns:smil="http://www.w3.org/2001/SMIL20/" xmlns:anim="urn:oasis:names:tc:opendocument:xmlns:animation:1.0" xml:space="preserve">
 <defs class="ClipPathGroup">
  <clipPath id="presentation_clip_path" clipPathUnits="userSpaceOnUse">
   <rect x="0" y="0" width="15901" height="15901"/>
  </clipPath>
  <clipPath id="presentation_clip_path_shrink" clipPathUnits="userSpaceOnUse">
   <rect x="15" y="15" width="15870" height="15870"/>
  </clipPath>
 </defs>
 <defs class="TextShapeIndex">
  <g ooo:slide="id1" ooo:id-list="id3"/>
 </defs>
 <defs class="EmbeddedBulletChars">
  <g id="bullet-char-template-57356" transform="scale(0.00048828125,-0.00048828125)">
   <path d="M 580,1141 L 1163,571 580,0 -4,571 580,1141 Z"/>
  </g>
  <g id="bullet-char-template-57354" transform="scale(0.00048828125,-0.00048828125)">
   <path d="M 8,1128 L 1137,1128 1137,0 8,0 8,1128 Z"/>
  </g>
  <g id="bullet-char-template-10146" transform="scale(0.00048828125,-0.00048828125)">
   <path d="M 174,0 L 602,739 174,1481 1456,739 174,0 Z M 1358,739 L 309,1346 659,739 1358,739 Z"/>
  </g>
  <g id="bullet-char-template-10132" transform="scale(0.00048828125,-0.00048828125)">
   <path d="M 2015,739 L 1276,0 717,0 1260,543 174,543 174,936 1260,936 717,1481 1274,1481 2015,739 Z"/>
  </g>
  <g id="bullet-char-template-10007" transform="scale(0.00048828125,-0.00048828125)">
   <path d="M 0,-2 C -7,14 -16,27 -25,37 L 356,567 C 262,823 215,952 215,954 215,979 228,992 255,992 264,992 276,990 289,987 310,991 331,999 354,1012 L 381,999 492,748 772,1049 836,1024 860,1049 C 881,1039 901,1025 922,1006 886,937 835,863 770,784 769,783 710,716 594,584 L 774,223 C 774,196 753,168 711,139 L 727,119 C 717,90 699,76 672,76 641,76 570,178 457,381 L 164,-76 C 142,-110 111,-127 72,-127 30,-127 9,-110 8,-76 1,-67 -2,-52 -2,-32 -2,-23 -1,-13 0,-2 Z"/>
  </g>
  <g id="bullet-char-template-10004" transform="scale(0.00048828125,-0.00048828125)">
   <path d="M 285,-33 C 182,-33 111,30 74,156 52,228 41,333 41,471 41,549 55,616 82,672 116,743 169,778 240,778 293,778 328,747 346,684 L 369,508 C 377,444 397,411 428,410 L 1163,1116 C 1174,1127 1196,1133 1229,1133 1271,1133 1292,1118 1292,1087 L 1292,965 C 1292,929 1282,901 1262,881 L 442,47 C 390,-6 338,-33 285,-33 Z"/>
  </g>
  <g id="bullet-char-template-9679" transform="scale(0.00048828125,-0.00048828125)">
   <path d="M 813,0 C 632,0 489,54 383,161 276,268 223,411 223,592 223,773 276,916 383,1023 489,1130 632,1184 813,1184 992,1184 1136,1130 1245,1023 1353,916 1407,772 1407,592 1407,412 1353,268 1245,161 1136,54 992,0 813,0 Z"/>
  </g>
  <g id="bullet-char-template-8226" transform="scale(0.00048828125,-0.00048828125)">
   <path d="M 346,457 C 273,457 209,483 155,535 101,586 74,649 74,723 74,796 101,859 155,911 209,963 273,989 346,989 419,989 480,963 531,910 582,859 608,796 608,723 608,648 583,586 532,535 482,483 420,457 346,457 Z"/>
  </g>
  <g id="bullet-char-template-8211" transform="scale(0.00048828125,-0.00048828125)">
   <path d="M -4,459 L 1135,459 1135,606 -4,606 -4,459 Z"/>
  </g>
  <g id="bullet-char-template-61548" transform="scale(0.00048828125,-0.00048828125)">
   <path d="M 173,740 C 173,903 231,1043 346,1159 462,1274 601,1332 765,1332 928,1332 1067,1274 1183,1159 1299,1043 1357,903 1357,740 1357,577 1299,437 1183,322 1067,206 928,148 765,148 601,148 462,206 346,322 231,437 173,577 173,740 Z"/>
  </g>
 </defs>
 <g>
  <g id="id2" class="Master_Slide">
   <g id="bg-id2" class="Background"/>
   <g id="bo-id2" class="BackgroundObjects"/>
  </g>
 </g>
 <g class="SlideGroup">
  <g>
   <g id="container-id1">
    <g id="id1" class="Slide" clip-path="url(#presentation_clip_path)">
     <g class="Page">
      <g class="Graphic">
       <g id="id3">
        <rect class="BoundingBox" stroke="none" fill="none" x="4553" y="6453" width="6700" height="2800"/>
        <defs>
         <clipPath id="clip_path_1" clipPathUnits="userSpaceOnUse">
          <path d="M 4553,6453 L 11252,6453 11252,9252 4553,9252 4553,6453 Z"/>
         </clipPath>
        </defs>
        <g clip-path="url(#clip_path_1)">
         <path fill="rgb(0,0,0)" stroke="none" d="M 7209,833 C 4314,1126 1753,3355 1041,6205 864,6918 845,7085 845,8003 845,8987 923,9531 1161,10224 1383,10867 1565,11262 1864,11754 4500,16092 10787,16407 13795,12355 17581,7249 13550,195 7209,833 L 7209,833 Z M 9254,986 C 12003,1466 14248,3549 14930,6258 15107,6962 15126,7134 15124,8039 15123,9026 15026,9630 14754,10348 14714,10453 14668,10580 14652,10630 14597,10801 14343,11319 14197,11558 14118,11691 14051,11807 14051,11814 14051,11821 13992,11911 13920,12013 12504,14012 10423,15106 8038,15106 3010,15106 -410,10092 1413,5400 2621,2293 5957,414 9254,986 L 9254,986 Z"/>
         <path fill="rgb(0,0,0)" stroke="none" d="M 7315,1605 C 7112,1640 6742,1690 6495,1714 6214,1743 6049,1774 6056,1797 6068,1834 8641,1833 8769,1794 8803,1785 9103,1794 9436,1817 10004,1854 10304,1825 10009,1764 9953,1751 9820,1720 9713,1693 9032,1521 8032,1484 7315,1605 L 7315,1605 Z"/>
         <path fill="rgb(0,0,0)" stroke="none" d="M 7156,2259 C 6784,2314 6211,2456 6020,2541 5946,2573 5855,2612 5816,2627 4135,3290 2764,4896 2365,6664 2228,7275 2208,7443 2217,8039 2263,11326 4768,13804 8055,13813 9127,13816 9660,13693 10661,13212 11792,12667 12897,11516 13347,10416 13407,10272 13470,10122 13488,10083 13781,9438 13947,8195 13842,7404 13402,4030 10460,1767 7156,2259 L 7156,2259 Z M 8875,2361 C 11749,2834 13712,5121 13712,8003 13712,13184 7526,15658 3901,11929 1623,9584 1863,5678 4412,3606 5659,2592 7371,2115 8875,2361 L 8875,2361 Z"/>
         <path fill="rgb(0,0,0)" stroke="none" d="M 6338,3932 C 6020,4015 5893,4080 5804,4207 5705,4344 5670,4496 5735,4496 5823,4496 6130,4381 6221,4314 6384,4194 6936,4108 7070,4180 7225,4263 7084,4418 6765,4519 6537,4591 6493,4565 6620,4432 6884,4157 6629,4221 6310,4510 6232,4579 6133,4637 6091,4637 5969,4637 5834,4700 5834,4760 5834,4788 5856,4813 5885,4813 5980,4813 5976,4880 5869,5053 5574,5534 6040,5814 6638,5516 7189,5240 7152,4891 6565,4818 6295,4785 6317,4721 6616,4672 7112,4589 7364,4406 7343,4150 7320,3870 6909,3782 6338,3932 L 6338,3932 Z M 6632,4963 C 6930,5060 6720,5289 6331,5289 6035,5289 5992,5233 6130,5023 6237,4861 6299,4854 6632,4963 L 6632,4963 Z"/>
         <path fill="rgb(0,0,0)" stroke="none" d="M 10058,4134 C 9789,4394 9551,4707 9438,4954 9344,5164 9200,5342 9124,5342 9037,5342 9078,5176 9201,5021 9559,4570 9235,4570 8805,5023 8570,5270 8501,5257 8708,5005 8845,4836 8858,4795 8773,4764 8683,4728 8558,4832 8438,5046 8314,5264 8133,5386 8029,5321 7928,5255 7942,5210 8124,5009 8329,4783 8355,4672 8203,4672 8087,4672 7923,4829 7814,5046 7687,5300 7426,5462 7371,5321 7320,5188 7357,5106 7563,4901 7890,4579 8113,4045 7937,4009 7687,3958 7061,4986 7121,5347 7177,5675 7346,5693 7653,5405 L 7764,5301 7789,5400 C 7847,5633 8015,5656 8232,5462 8344,5359 8376,5345 8390,5391 8399,5423 8415,5470 8424,5500 8456,5597 8530,5553 8702,5338 8895,5097 8937,5092 8849,5319 8731,5629 8905,5721 9163,5483 9346,5314 9360,5312 9360,5448 9360,5516 9378,5553 9411,5553 9439,5553 9491,5506 9524,5448 9584,5347 9678,5303 9678,5374 9678,5444 9864,5624 9937,5624 10025,5624 10489,5222 10489,5144 10489,5062 10436,5086 10254,5254 10071,5423 9997,5446 9921,5354 9879,5305 9884,5289 9958,5240 10319,5002 10471,4672 10217,4672 10125,4672 9702,4980 9665,5076 9642,5134 9501,5218 9501,5173 9501,5157 9669,4949 9871,4711 10291,4224 10436,4023 10402,3969 10355,3893 10266,3937 10058,4134 L 10058,4134 Z M 7789,4364 C 7750,4494 7512,4848 7463,4848 7410,4848 7436,4788 7627,4487 7759,4279 7831,4224 7789,4364 L 7789,4364 Z M 9991,5081 C 9879,5197 9727,5247 9757,5157 9764,5132 9842,5060 9926,4995 10115,4850 10159,4908 9991,5081 L 9991,5081 Z"/>
         <path fill="rgb(0,0,0)" stroke="none" d="M 8316,4372 C 8218,4473 8216,4577 8314,4596 8406,4614 8514,4501 8514,4385 8514,4258 8436,4253 8316,4372 L 8316,4372 Z"/>
         <path fill="rgb(0,0,0)" stroke="none" d="M 5608,6775 C 5416,6833 4881,7131 4881,7180 4881,7226 4927,7217 5107,7138 5698,6875 6199,6942 6973,7386 7144,7485 7297,7556 7315,7545 7355,7520 7267,7263 7218,7263 7198,7263 7152,7228 7115,7184 7045,7099 6489,6844 6204,6766 5982,6704 5826,6708 5608,6775 L 5608,6775 Z"/>
         <path fill="rgb(0,0,0)" stroke="none" d="M 9783,6764 C 9526,6840 8939,7108 8891,7173 8868,7205 8822,7242 8789,7254 8732,7275 8660,7510 8699,7549 8708,7557 8886,7471 9092,7356 9849,6935 10256,6884 10870,7129 11286,7293 11162,7140 10679,6891 10356,6725 10064,6683 9783,6764 L 9783,6764 Z"/>
         <path fill="rgb(0,0,0)" stroke="none" d="M 6003,7508 C 5837,7550 5551,7721 5551,7779 5551,7834 5647,7811 5837,7712 6186,7531 6555,7580 6902,7853 7105,8012 7110,7929 6909,7753 6639,7513 6320,7427 6003,7508 L 6003,7508 Z"/>
         <path fill="rgb(0,0,0)" stroke="none" d="M 9623,7538 C 9611,7571 9573,7598 9542,7598 9445,7600 9173,7737 9069,7836 8916,7982 8955,7993 9157,7861 9258,7794 9365,7737 9395,7735 9642,7718 9789,7721 9827,7744 9861,7767 9859,7774 9819,7779 9494,7816 9464,7824 9272,7922 9018,8053 8602,8511 8732,8516 8828,8520 9244,8581 9385,8613 9466,8631 9605,8634 9693,8620 9783,8606 9864,8610 9875,8625 9907,8677 9960,8657 9961,8594 9961,8537 9967,8537 10013,8599 10062,8664 10064,8663 10095,8580 10140,8465 10247,8375 10268,8435 10277,8460 10316,8479 10355,8479 10415,8479 10420,8470 10383,8426 10311,8340 10452,8359 10549,8449 10616,8514 10630,8518 10630,8469 10630,8437 10582,8375 10524,8333 10386,8231 10390,8211 10557,8183 10653,8169 10691,8146 10681,8116 10670,8090 10723,8021 10795,7961 10937,7848 11083,7633 11021,7633 11000,7633 10949,7681 10907,7739 10862,7797 10815,7845 10797,7845 10780,7845 10799,7802 10840,7751 10942,7619 10942,7471 10838,7596 L 10765,7683 10790,7587 C 10833,7418 10744,7485 10683,7668 10630,7831 10559,7933 10559,7848 10559,7829 10572,7806 10587,7795 10624,7772 10596,7527 10556,7527 10538,7527 10524,7563 10524,7607 10524,7651 10508,7709 10489,7739 10462,7779 10455,7764 10453,7677 10453,7542 10400,7526 10369,7651 10332,7797 10229,7765 10258,7616 10272,7538 10266,7492 10244,7492 10222,7492 10207,7522 10207,7561 10207,7670 10143,7679 10125,7571 10111,7478 10110,7476 10083,7556 10067,7607 10035,7630 10000,7619 9968,7610 9887,7593 9819,7579 9752,7564 9685,7536 9670,7515 9655,7490 9637,7497 9623,7538 L 9623,7538 Z M 9466,8067 C 9466,8091 9448,8130 9425,8153 9367,8211 9417,8303 9506,8303 9612,8303 9713,8204 9713,8100 9713,7984 9797,8016 9812,8137 9827,8266 9681,8409 9536,8409 9334,8409 9168,8146 9316,8060 9402,8009 9466,8012 9466,8067 L 9466,8067 Z M 10034,8076 C 10416,8273 9783,8594 9208,8495 8817,8426 8826,8435 8972,8285 9120,8134 9122,8134 9194,8287 9360,8633 9889,8504 9889,8118 9889,8005 9894,8003 10034,8076 L 10034,8076 Z"/>
         <path fill="rgb(0,0,0)" stroke="none" d="M 5340,7728 C 5340,7744 5380,7816 5428,7887 5592,8128 5431,8248 5111,8127 4985,8079 4917,8125 5026,8181 5185,8262 5327,8275 5463,8217 5636,8144 5657,8150 5557,8234 5463,8312 5167,8329 5003,8266 4857,8211 4850,8262 4985,8377 5088,8462 5141,8479 5296,8479 5414,8479 5477,8493 5463,8514 5451,8534 5391,8550 5329,8550 5192,8551 5082,8606 5165,8633 5193,8643 5257,8648 5305,8645 5372,8640 5391,8654 5382,8700 5363,8812 5742,8742 5841,8613 5911,8520 5922,8543 5865,8668 5844,8715 5788,8774 5742,8798 5650,8848 5624,8923 5710,8888 5740,8876 5788,8858 5816,8846 5853,8830 5869,8848 5869,8902 5869,8971 5876,8974 5925,8936 5971,8897 5985,8897 6013,8939 6054,9004 6177,8865 6209,8717 6221,8664 6244,8620 6262,8620 6308,8620 6299,8696 6239,8809 6209,8865 6186,8929 6186,8950 6186,9024 6333,8842 6378,8710 6403,8636 6433,8592 6444,8610 6456,8627 6442,8687 6414,8742 6385,8795 6363,8863 6363,8893 6363,8976 6459,8881 6544,8715 6583,8640 6622,8587 6632,8596 6641,8606 6625,8663 6593,8721 6519,8867 6525,8881 6625,8807 6673,8772 6722,8700 6735,8647 6757,8544 6821,8513 6821,8603 6821,8685 6886,8664 6899,8576 6907,8507 6930,8497 7064,8497 7151,8497 7227,8479 7234,8458 7253,8400 7001,8370 6724,8395 6260,8439 5842,8266 5557,7915 5402,7723 5340,7670 5340,7728 L 5340,7728 Z"/>
         <path fill="rgb(0,0,0)" stroke="none" d="M 4924,10111 C 4804,10233 4705,10342 4705,10355 4705,10404 4985,10665 5036,10665 5123,10665 5104,10591 4985,10469 L 4878,10358 5070,10182 C 5222,10044 5255,9995 5229,9949 5179,9861 5163,9870 4924,10111 L 4924,10111 Z"/>
         <path fill="rgb(0,0,0)" stroke="none" d="M 11063,10030 C 11053,10069 11030,10101 11012,10101 10995,10101 10972,10124 10961,10150 10938,10208 11196,10489 11272,10489 11377,10489 11369,10437 11240,10305 11123,10185 11113,10161 11152,10099 11198,10025 11182,9960 11118,9960 11099,9960 11074,9991 11063,10030 L 11063,10030 Z"/>
         <path fill="rgb(0,0,0)" stroke="none" d="M 10661,10415 C 10554,10522 10536,10577 10593,10610 10612,10622 10653,10591 10684,10543 10718,10494 10758,10453 10774,10453 10825,10453 10811,10547 10753,10594 10679,10656 10688,10797 10767,10839 10825,10871 10974,10790 11116,10647 11143,10621 10848,10312 10797,10312 10780,10312 10720,10358 10661,10415 L 10661,10415 Z M 10928,10677 C 10900,10746 10806,10756 10806,10689 10806,10624 10885,10554 10921,10589 10937,10605 10940,10644 10928,10677 L 10928,10677 Z"/>
         <path fill="rgb(0,0,0)" stroke="none" d="M 5364,10476 C 5327,10511 5410,10594 5483,10594 5518,10594 5555,10608 5565,10624 5603,10684 5543,10693 5410,10647 5289,10605 5269,10607 5216,10665 5144,10744 5174,10864 5273,10896 5312,10906 5373,10950 5410,10991 L 5479,11063 5514,10979 C 5534,10933 5585,10852 5625,10801 5763,10630 5516,10325 5364,10476 L 5364,10476 Z M 5474,10801 C 5484,10832 5463,10843 5409,10836 5364,10829 5320,10802 5312,10776 5301,10744 5322,10734 5377,10741 5421,10748 5465,10774 5474,10801 L 5474,10801 Z"/>
         <path fill="rgb(0,0,0)" stroke="none" d="M 10057,10619 C 9854,10732 9854,10721 10039,11040 10214,11342 10192,11335 10415,11176 10658,11000 10683,10838 10475,10786 10416,10771 10395,10746 10408,10702 10452,10533 10284,10492 10057,10619 L 10057,10619 Z M 10291,10695 C 10318,10737 10212,10876 10150,10876 10122,10876 10088,10850 10076,10818 10041,10726 10240,10612 10291,10695 L 10291,10695 Z M 10450,10908 C 10489,10934 10482,10957 10408,11031 10295,11142 10254,11146 10222,11047 10184,10927 10335,10836 10450,10908 L 10450,10908 Z"/>
         <path fill="rgb(0,0,0)" stroke="none" d="M 5821,10788 C 5737,10850 5749,10947 5858,11060 5909,11112 5945,11164 5938,11171 5904,11202 5763,11121 5763,11072 5763,11014 5675,10996 5641,11049 5571,11165 5883,11328 6010,11239 6102,11176 6100,11151 5992,11024 5871,10880 5881,10806 6006,10926 6130,11044 6199,10984 6080,10859 5983,10756 5897,10732 5821,10788 L 5821,10788 Z"/>
         <path fill="rgb(0,0,0)" stroke="none" d="M 6347,10920 C 6320,10984 6266,11111 6225,11206 6139,11407 6132,11476 6202,11476 6230,11476 6285,11403 6324,11317 6375,11202 6414,11158 6467,11158 6551,11158 6560,11241 6486,11370 6415,11493 6421,11581 6497,11581 6541,11581 6578,11527 6625,11391 6701,11164 6683,11093 6539,11065 6424,11042 6410,11019 6474,10956 6518,10912 6489,10806 6433,10806 6412,10806 6373,10857 6347,10920 L 6347,10920 Z"/>
         <path fill="rgb(0,0,0)" stroke="none" d="M 9443,10913 C 9385,10971 9605,11546 9686,11546 9771,11546 9762,11472 9646,11160 9544,10890 9508,10848 9443,10913 L 9443,10913 Z"/>
         <path fill="rgb(0,0,0)" stroke="none" d="M 9184,11054 C 9184,11146 9300,11135 9318,11044 9327,11001 9307,10982 9256,10982 9207,10982 9184,11005 9184,11054 L 9184,11054 Z"/>
         <path fill="rgb(0,0,0)" stroke="none" d="M 7232,11139 C 7188,11172 7175,11211 7191,11264 7209,11319 7191,11361 7124,11423 6941,11594 7093,11832 7348,11775 7406,11763 7459,11770 7472,11791 7484,11810 7517,11828 7546,11828 7607,11828 7614,11699 7553,11677 7517,11664 7517,11652 7553,11613 7620,11544 7607,11516 7503,11504 7387,11491 7355,11421 7454,11395 7528,11377 7553,11254 7498,11171 7456,11102 7302,11084 7232,11139 L 7232,11139 Z M 7334,11590 C 7359,11689 7334,11706 7230,11666 7163,11640 7156,11543 7216,11483 7267,11432 7302,11463 7334,11590 L 7334,11590 Z"/>
         <path fill="rgb(0,0,0)" stroke="none" d="M 8456,11167 C 8441,11188 8434,11296 8438,11403 L 8445,11599 8302,11379 C 8094,11058 8055,11079 8055,11513 8055,11833 8062,11867 8117,11856 8165,11847 8182,11798 8196,11640 L 8214,11435 8332,11631 C 8523,11946 8586,11911 8579,11495 8572,11174 8526,11053 8456,11167 L 8456,11167 Z"/>
         <path fill="rgb(0,0,0)" stroke="none" d="M 9268,11271 C 9323,11548 9365,11652 9418,11652 9485,11652 9471,11499 9383,11289 9314,11125 9237,11112 9268,11271 L 9268,11271 Z"/>
         <path fill="rgb(0,0,0)" stroke="none" d="M 8780,11320 C 8704,11396 8764,11476 8845,11409 8875,11384 8926,11370 8962,11379 9011,11389 8997,11410 8893,11472 8664,11611 8727,11781 8995,11742 9224,11706 9221,11715 9152,11484 9085,11257 8918,11183 8780,11320 L 8780,11320 Z M 9043,11565 C 9043,11624 8963,11666 8898,11645 8870,11636 8877,11611 8918,11571 8992,11497 9043,11493 9043,11565 L 9043,11565 Z"/>
         <path fill="rgb(0,0,0)" stroke="none" d="M 1766,6126 C 1741,6366 1691,6720 1639,7052 1512,7825 1503,8740 1616,9244 1730,9754 1810,10074 1829,10094 1878,10143 1854,9768 1796,9590 1642,9126 1538,7898 1632,7668 1662,7593 1669,7612 1670,7792 1674,7908 1697,8098 1725,8215 1753,8331 1778,8518 1778,8629 1778,8754 1794,8832 1817,8832 1871,8832 1843,8153 1787,8084 1716,8000 1716,7022 1787,6787 1847,6583 1871,5906 1818,5906 1801,5906 1778,6005 1766,6126 L 1766,6126 Z"/>
         <path fill="rgb(0,0,0)" stroke="none" d="M 14236,6258 C 14243,6345 14294,6606 14349,6836 14483,7413 14468,8319 14315,8885 14200,9313 14200,9306 14243,9318 14282,9331 14403,8932 14403,8795 14403,8745 14423,8685 14446,8663 14505,8603 14509,7034 14451,6858 14428,6789 14382,6607 14349,6452 14278,6128 14213,6015 14236,6258 L 14236,6258 Z"/>
         <path fill="rgb(0,0,0)" stroke="none" d="M 6398,14215 C 6398,14232 6553,14275 6742,14310 6930,14345 7165,14391 7262,14412 7798,14530 9854,14373 9854,14216 9854,14179 9323,14197 8583,14255 8290,14278 8006,14280 7754,14257 7137,14202 6398,14179 6398,14215 L 6398,14215 Z"/>
        </g>
       </g>
      </g>
     </g>
    </g>
   </g>
  </g>
 </g>
</svg>