<?xml version="1.0" encoding="UTF-8"?>
<!DOCTYPE svg PUBLIC "-//W3C//DTD SVG 1.1//EN" "http://www.w3.org/Graphics/SVG/1.1/DTD/svg11.dtd">
<svg version="1.2" width="159.01mm" height="159.01mm" viewBox="0 0 15901 15901" preserveAspectRatio="xMidYMid" fill-rule="evenodd" stroke-width="28.222" stroke-linejoin="round" xmlns="http://www.w3.org/2000/svg" xmlns:ooo="http://xml.openoffice.org/svg/export" xmlns:xlink="http://www.w3.org/1999/xlink" xmlns:presentation="http://sun.com/xmlns/staroffice/presentation" xmlns:smil="http://www.w3.org/2001/SMIL20/" xmlns:anim="urn:oasis:names:tc:opendocument:xmlns:animation:1.0" xml:space="preserve">
 <defs class="ClipPathGroup">
  <clipPath id="presentation_clip_path" clipPathUnits="userSpaceOnUse">
   <rect x="0" y="0" width="15901" height="15901"/>
  </clipPath>
  <clipPath id="presentation_clip_path_shrink" clipPathUnits="userSpaceOnUse">
   <rect x="15" y="15" width="15870" height="15870"/>
  </clipPath>
 </defs>
 <defs class="TextShapeIndex">
  <g ooo:slide="id1" ooo:id-list="id3"/>
 </defs>
 <defs class="EmbeddedBulletChars">
  <g id="bullet-char-template-57356" transform="scale(0.00048828125,-0.00048828125)">
   <path d="M 580,1141 L 1163,571 580,0 -4,571 580,1141 Z"/>
  </g>
  <g id="bullet-char-template-57354" transform="scale(0.00048828125,-0.00048828125)">
   <path d="M 8,1128 L 1137,1128 1137,0 8,0 8,1128 Z"/>
  </g>
  <g id="bullet-char-template-10146" transform="scale(0.00048828125,-0.00048828125)">
   <path d="M 174,0 L 602,739 174,1481 1456,739 174,0 Z M 1358,739 L 309,1346 659,739 1358,739 Z"/>
  </g>
  <g id="bullet-char-template-10132" transform="scale(0.00048828125,-0.00048828125)">
   <path d="M 2015,739 L 1276,0 717,0 1260,543 174,543 174,936 1260,936 717,1481 1274,1481 2015,739 Z"/>
  </g>
  <g id="bullet-char-template-10007" transform="scale(0.00048828125,-0.00048828125)">
   <path d="M 0,-2 C -7,14 -16,27 -25,37 L 356,567 C 262,823 215,952 215,954 215,979 228,992 255,992 264,992 276,990 289,987 310,991 331,999 354,1012 L 381,999 492,748 772,1049 836,1024 860,1049 C 881,1039 901,1025 922,1006 886,937 835,863 770,784 769,783 710,716 594,584 L 774,223 C 774,196 753,168 711,139 L 727,119 C 717,90 699,76 672,76 641,76 570,178 457,381 L 164,-76 C 142,-110 111,-127 72,-127 30,-127 9,-110 8,-76 1,-67 -2,-52 -2,-32 -2,-23 -1,-13 0,-2 Z"/>
  </g>
  <g id="bullet-char-template-10004" transform="scale(0.00048828125,-0.00048828125)">
   <path d="M 285,-33 C 182,-33 111,30 74,156 52,228 41,333 41,471 41,549 55,616 82,672 116,743 169,778 240,778 293,778 328,747 346,684 L 369,508 C 377,444 397,411 428,410 L 1163,1116 C 1174,1127 1196,1133 1229,1133 1271,1133 1292,1118 1292,1087 L 1292,965 C 1292,929 1282,901 1262,881 L 442,47 C 390,-6 338,-33 285,-33 Z"/>
  </g>
  <g id="bullet-char-template-9679" transform="scale(0.00048828125,-0.00048828125)">
   <path d="M 813,0 C 632,0 489,54 383,161 276,268 223,411 223,592 223,773 276,916 383,1023 489,1130 632,1184 813,1184 992,1184 1136,1130 1245,1023 1353,916 1407,772 1407,592 1407,412 1353,268 1245,161 1136,54 992,0 813,0 Z"/>
  </g>
  <g id="bullet-char-template-8226" transform="scale(0.00048828125,-0.00048828125)">
   <path d="M 346,457 C 273,457 209,483 155,535 101,586 74,649 74,723 74,796 101,859 155,911 209,963 273,989 346,989 419,989 480,963 531,910 582,859 608,796 608,723 608,648 583,586 532,535 482,483 420,457 346,457 Z"/>
  </g>
  <g id="bullet-char-template-8211" transform="scale(0.00048828125,-0.00048828125)">
   <path d="M -4,459 L 1135,459 1135,606 -4,606 -4,459 Z"/>
  </g>
  <g id="bullet-char-template-61548" transform="scale(0.00048828125,-0.00048828125)">
   <path d="M 173,740 C 173,903 231,1043 346,1159 462,1274 601,1332 765,1332 928,1332 1067,1274 1183,1159 1299,1043 1357,903 1357,740 1357,577 1299,437 1183,322 1067,206 928,148 765,148 601,148 462,206 346,322 231,437 173,577 173,740 Z"/>
  </g>
 </defs>
 <g>
  <g id="id2" class="Master_Slide">
   <g id="bg-id2" class="Background"/>
   <g id="bo-id2" class="BackgroundObjects"/>
  </g>
 </g>
 <g class="SlideGroup">
  <g>
   <g id="container-id1">
    <g id="id1" class="Slide" clip-path="url(#presentation_clip_path)">
     <g class="Page">
      <g class="Graphic">
       <g id="id3">
        <rect class="BoundingBox" stroke="none" fill="none" x="4553" y="3553" width="6700" height="5700"/>
        <defs>
         <clipPath id="clip_path_1" clipPathUnits="userSpaceOnUse">
          <path d="M 4553,3553 L 11252,3553 11252,9252 4553,9252 4553,3553 Z"/>
         </clipPath>
        </defs>
        <g clip-path="url(#clip_path_1)">
         <path fill="rgb(0,0,0)" stroke="none" d="M 7209,830 C 4314,1123 1753,3353 1041,6204 864,6917 845,7084 845,8003 845,8987 923,9532 1161,10225 1383,10868 1565,11263 1864,11755 4500,16094 10787,16410 13795,12356 17581,7248 13550,192 7209,830 L 7209,830 Z M 9254,983 C 12003,1463 14248,3547 14930,6257 15107,6961 15126,7134 15124,8038 15123,9026 15026,9630 14754,10348 14714,10454 14668,10581 14652,10630 14597,10801 14343,11319 14197,11559 14118,11692 14051,11808 14051,11815 14051,11822 13992,11912 13920,12014 12504,14014 10423,15109 8038,15109 3010,15109 -410,10092 1413,5399 2621,2290 5957,410 9254,983 L 9254,983 Z"/>
         <path fill="rgb(0,0,0)" stroke="none" d="M 7315,1602 C 7112,1638 6742,1687 6495,1712 6214,1740 6049,1772 6056,1795 6068,1832 8641,1830 8769,1791 8803,1782 9103,1791 9436,1814 10004,1851 10304,1823 10009,1761 9953,1749 9820,1717 9713,1691 9032,1518 8032,1481 7315,1602 L 7315,1602 Z"/>
         <path fill="rgb(0,0,0)" stroke="none" d="M 7156,2257 C 6784,2311 6211,2454 6020,2539 5946,2570 5855,2609 5816,2625 4135,3288 2764,4894 2365,6663 2228,7275 2208,7442 2217,8038 2263,11327 4768,13806 8055,13814 9127,13818 9660,13695 10661,13213 11792,12668 12897,11517 13347,10417 13407,10272 13470,10122 13488,10083 13781,9438 13947,8195 13842,7403 13402,4029 10460,1765 7156,2257 L 7156,2257 Z M 8875,2359 C 11749,2831 13712,5120 13712,8003 13712,13185 7526,15661 3901,11930 1623,9584 1863,5677 4412,3604 5659,2590 7371,2112 8875,2359 L 8875,2359 Z"/>
         <path fill="rgb(0,0,0)" stroke="none" d="M 6338,3930 C 6020,4013 5893,4078 5804,4205 5705,4342 5670,4494 5735,4494 5823,4494 6130,4379 6221,4312 6384,4193 6936,4106 7070,4178 7225,4261 7084,4416 6765,4517 6537,4589 6493,4563 6620,4431 6884,4156 6629,4219 6310,4508 6232,4577 6133,4635 6091,4635 5969,4635 5834,4699 5834,4759 5834,4787 5856,4811 5885,4811 5980,4811 5976,4878 5869,5051 5574,5533 6040,5813 6638,5515 7189,5238 7152,4889 6565,4817 6295,4783 6317,4720 6616,4670 7112,4587 7364,4404 7343,4148 7320,3868 6909,3780 6338,3930 L 6338,3930 Z M 6632,4961 C 6930,5058 6720,5287 6331,5287 6035,5287 5992,5231 6130,5021 6237,4859 6299,4852 6632,4961 L 6632,4961 Z"/>
         <path fill="rgb(0,0,0)" stroke="none" d="M 10058,4133 C 9789,4392 9551,4706 9438,4952 9344,5162 9200,5340 9124,5340 9037,5340 9078,5175 9201,5019 9559,4568 9235,4568 8805,5021 8570,5268 8501,5256 8708,5004 8845,4834 8858,4794 8773,4762 8683,4727 8558,4831 8438,5044 8314,5263 8133,5384 8029,5319 7928,5254 7942,5208 8124,5007 8329,4781 8355,4670 8203,4670 8087,4670 7923,4827 7814,5044 7687,5298 7426,5460 7371,5319 7320,5187 7357,5104 7563,4900 7890,4577 8113,4043 7937,4007 7687,3956 7061,4984 7121,5346 7177,5674 7346,5691 7653,5404 L 7764,5300 7789,5399 C 7847,5631 8015,5654 8232,5460 8344,5358 8376,5344 8390,5390 8399,5422 8415,5469 8424,5499 8456,5596 8530,5552 8702,5337 8895,5095 8937,5090 8849,5317 8731,5628 8905,5719 9163,5481 9346,5312 9360,5310 9360,5446 9360,5515 9378,5552 9411,5552 9439,5552 9491,5504 9524,5446 9584,5346 9678,5302 9678,5372 9678,5443 9864,5623 9937,5623 10025,5623 10489,5220 10489,5143 10489,5060 10436,5085 10254,5252 10071,5422 9997,5444 9921,5353 9879,5303 9884,5287 9958,5238 10319,5000 10471,4670 10217,4670 10125,4670 9702,4979 9665,5074 9642,5132 9501,5217 9501,5171 9501,5155 9669,4947 9871,4709 10291,4223 10436,4022 10402,3967 10355,3891 10266,3935 10058,4133 L 10058,4133 Z M 7789,4362 C 7750,4492 7512,4847 7463,4847 7410,4847 7436,4787 7627,4485 7759,4277 7831,4223 7789,4362 L 7789,4362 Z M 9991,5079 C 9879,5196 9727,5245 9757,5155 9764,5131 9842,5058 9926,4993 10115,4848 10159,4907 9991,5079 L 9991,5079 Z"/>
         <path fill="rgb(0,0,0)" stroke="none" d="M 8316,4371 C 8218,4471 8216,4575 8314,4595 8406,4612 8514,4499 8514,4383 8514,4256 8436,4251 8316,4371 L 8316,4371 Z"/>
         <path fill="rgb(0,0,0)" stroke="none" d="M 5608,6774 C 5416,6832 4881,7130 4881,7179 4881,7225 4927,7216 5107,7137 5698,6874 6199,6941 6973,7386 7144,7484 7297,7555 7315,7544 7355,7520 7267,7262 7218,7262 7198,7262 7152,7227 7115,7183 7045,7098 6489,6843 6204,6765 5982,6703 5826,6707 5608,6774 L 5608,6774 Z"/>
         <path fill="rgb(0,0,0)" stroke="none" d="M 9783,6763 C 9526,6839 8939,7107 8891,7172 8868,7204 8822,7241 8789,7253 8732,7275 8660,7509 8699,7548 8708,7557 8886,7470 9092,7356 9849,6934 10256,6883 10870,7128 11286,7292 11162,7139 10679,6890 10356,6725 10064,6682 9783,6763 L 9783,6763 Z"/>
         <path fill="rgb(0,0,0)" stroke="none" d="M 6003,7507 C 5837,7550 5551,7721 5551,7779 5551,7834 5647,7811 5837,7712 6186,7530 6555,7580 6902,7853 7105,8012 7110,7929 6909,7752 6639,7513 6320,7426 6003,7507 L 6003,7507 Z"/>
         <path fill="rgb(0,0,0)" stroke="none" d="M 9623,7537 C 9611,7571 9573,7597 9542,7597 9445,7599 9173,7737 9069,7835 8916,7982 8955,7992 9157,7860 9258,7793 9365,7737 9395,7735 9642,7717 9789,7721 9827,7744 9861,7767 9859,7774 9819,7779 9494,7816 9464,7823 9272,7922 9018,8052 8602,8511 8732,8516 8828,8519 9244,8581 9385,8613 9466,8631 9605,8634 9693,8620 9783,8606 9864,8609 9875,8625 9907,8676 9960,8657 9961,8594 9961,8537 9967,8537 10013,8599 10062,8664 10064,8662 10095,8579 10140,8465 10247,8375 10268,8435 10277,8460 10316,8479 10355,8479 10415,8479 10420,8470 10383,8426 10311,8340 10452,8359 10549,8449 10616,8514 10630,8518 10630,8468 10630,8437 10582,8375 10524,8333 10386,8230 10390,8211 10557,8183 10653,8169 10691,8146 10681,8116 10670,8089 10723,8020 10795,7961 10937,7848 11083,7633 11021,7633 11000,7633 10949,7680 10907,7738 10862,7797 10815,7844 10797,7844 10780,7844 10799,7802 10840,7751 10942,7618 10942,7470 10838,7596 L 10765,7682 10790,7587 C 10833,7417 10744,7484 10683,7668 10630,7830 10559,7932 10559,7848 10559,7828 10572,7805 10587,7795 10624,7772 10596,7527 10556,7527 10538,7527 10524,7562 10524,7606 10524,7650 10508,7708 10489,7738 10462,7779 10455,7763 10453,7677 10453,7541 10400,7525 10369,7650 10332,7797 10229,7765 10258,7615 10272,7537 10266,7492 10244,7492 10222,7492 10207,7521 10207,7560 10207,7670 10143,7678 10125,7571 10111,7477 10110,7476 10083,7555 10067,7606 10035,7629 10000,7618 9968,7610 9887,7592 9819,7578 9752,7564 9685,7536 9670,7514 9655,7490 9637,7497 9623,7537 L 9623,7537 Z M 9466,8066 C 9466,8091 9448,8130 9425,8153 9367,8211 9417,8303 9506,8303 9612,8303 9713,8204 9713,8100 9713,7983 9797,8015 9812,8137 9827,8266 9681,8408 9536,8408 9334,8408 9168,8146 9316,8059 9402,8008 9466,8012 9466,8066 L 9466,8066 Z M 10034,8075 C 10416,8273 9783,8594 9208,8495 8817,8426 8826,8435 8972,8285 9120,8133 9122,8133 9194,8287 9360,8632 9889,8504 9889,8117 9889,8005 9894,8003 10034,8075 L 10034,8075 Z"/>
         <path fill="rgb(0,0,0)" stroke="none" d="M 5340,7728 C 5340,7744 5380,7816 5428,7886 5592,8128 5431,8248 5111,8126 4985,8079 4917,8125 5026,8181 5185,8262 5327,8274 5463,8216 5636,8144 5657,8149 5557,8234 5463,8311 5167,8329 5003,8266 4857,8211 4850,8262 4985,8377 5088,8461 5141,8479 5296,8479 5414,8479 5477,8493 5463,8514 5451,8534 5391,8549 5329,8549 5192,8551 5082,8606 5165,8632 5193,8643 5257,8648 5305,8645 5372,8639 5391,8653 5382,8699 5363,8812 5742,8742 5841,8613 5911,8519 5922,8542 5865,8668 5844,8715 5788,8773 5742,8798 5650,8847 5624,8923 5710,8888 5740,8876 5788,8858 5816,8846 5853,8830 5869,8847 5869,8902 5869,8971 5876,8974 5925,8936 5971,8897 5985,8897 6013,8939 6054,9004 6177,8865 6209,8717 6221,8664 6244,8620 6262,8620 6308,8620 6299,8696 6239,8809 6209,8865 6186,8929 6186,8950 6186,9024 6333,8842 6378,8710 6403,8636 6433,8592 6444,8609 6456,8627 6442,8687 6414,8742 6385,8795 6363,8863 6363,8893 6363,8976 6459,8881 6544,8715 6583,8639 6622,8586 6632,8595 6641,8606 6625,8662 6593,8720 6519,8867 6525,8881 6625,8807 6673,8772 6722,8699 6735,8646 6757,8544 6821,8512 6821,8602 6821,8685 6886,8664 6899,8576 6907,8507 6930,8497 7064,8497 7151,8497 7227,8479 7234,8458 7253,8400 7001,8370 6724,8394 6260,8438 5842,8266 5557,7915 5402,7723 5340,7670 5340,7728 L 5340,7728 Z"/>
         <path fill="rgb(0,0,0)" stroke="none" d="M 4924,10112 C 4804,10233 4705,10343 4705,10355 4705,10404 4985,10665 5036,10665 5123,10665 5104,10591 4985,10470 L 4878,10359 5070,10182 C 5222,10045 5255,9995 5229,9949 5179,9861 5163,9870 4924,10112 L 4924,10112 Z"/>
         <path fill="rgb(0,0,0)" stroke="none" d="M 11063,10031 C 11053,10069 11030,10101 11012,10101 10995,10101 10972,10124 10961,10150 10938,10209 11196,10489 11272,10489 11377,10489 11369,10438 11240,10306 11123,10186 11113,10161 11152,10099 11198,10025 11182,9960 11118,9960 11099,9960 11074,9992 11063,10031 L 11063,10031 Z"/>
         <path fill="rgb(0,0,0)" stroke="none" d="M 10661,10415 C 10554,10522 10536,10577 10593,10611 10612,10623 10653,10591 10684,10544 10718,10494 10758,10454 10774,10454 10825,10454 10811,10547 10753,10595 10679,10656 10688,10798 10767,10840 10825,10872 10974,10791 11116,10648 11143,10621 10848,10313 10797,10313 10780,10313 10720,10359 10661,10415 L 10661,10415 Z M 10928,10678 C 10900,10746 10806,10757 10806,10690 10806,10625 10885,10554 10921,10589 10937,10605 10940,10644 10928,10678 L 10928,10678 Z"/>
         <path fill="rgb(0,0,0)" stroke="none" d="M 5364,10477 C 5327,10512 5410,10595 5483,10595 5518,10595 5555,10609 5565,10625 5603,10685 5543,10694 5410,10648 5289,10605 5269,10607 5216,10665 5144,10745 5174,10865 5273,10896 5312,10907 5373,10951 5410,10992 L 5479,11064 5514,10979 C 5534,10933 5585,10852 5625,10801 5763,10630 5516,10325 5364,10477 L 5364,10477 Z M 5474,10801 C 5484,10833 5463,10843 5409,10836 5364,10829 5320,10803 5312,10776 5301,10745 5322,10734 5377,10741 5421,10748 5465,10775 5474,10801 L 5474,10801 Z"/>
         <path fill="rgb(0,0,0)" stroke="none" d="M 10057,10619 C 9854,10732 9854,10722 10039,11041 10214,11342 10192,11335 10415,11177 10658,11000 10683,10838 10475,10787 10416,10771 10395,10746 10408,10702 10452,10533 10284,10493 10057,10619 L 10057,10619 Z M 10291,10695 C 10318,10738 10212,10877 10150,10877 10122,10877 10088,10850 10076,10819 10041,10727 10240,10612 10291,10695 L 10291,10695 Z M 10450,10909 C 10489,10935 10482,10958 10408,11032 10295,11143 10254,11147 10222,11048 10184,10928 10335,10836 10450,10909 L 10450,10909 Z"/>
         <path fill="rgb(0,0,0)" stroke="none" d="M 5821,10789 C 5737,10850 5749,10947 5858,11060 5909,11113 5945,11164 5938,11171 5904,11203 5763,11122 5763,11073 5763,11014 5675,10997 5641,11050 5571,11166 5883,11328 6010,11240 6102,11177 6100,11152 5992,11025 5871,10880 5881,10806 6006,10926 6130,11044 6199,10984 6080,10859 5983,10757 5897,10732 5821,10789 L 5821,10789 Z"/>
         <path fill="rgb(0,0,0)" stroke="none" d="M 6347,10921 C 6320,10984 6266,11111 6225,11207 6139,11408 6132,11476 6202,11476 6230,11476 6285,11404 6324,11318 6375,11203 6414,11159 6467,11159 6551,11159 6560,11242 6486,11371 6415,11494 6421,11582 6497,11582 6541,11582 6578,11528 6625,11392 6701,11164 6683,11094 6539,11066 6424,11043 6410,11020 6474,10956 6518,10912 6489,10806 6433,10806 6412,10806 6373,10858 6347,10921 L 6347,10921 Z"/>
         <path fill="rgb(0,0,0)" stroke="none" d="M 9443,10914 C 9385,10972 9605,11547 9686,11547 9771,11547 9762,11473 9646,11161 9544,10891 9508,10849 9443,10914 L 9443,10914 Z"/>
         <path fill="rgb(0,0,0)" stroke="none" d="M 9184,11055 C 9184,11147 9300,11136 9318,11044 9327,11002 9307,10983 9256,10983 9207,10983 9184,11006 9184,11055 L 9184,11055 Z"/>
         <path fill="rgb(0,0,0)" stroke="none" d="M 7232,11140 C 7188,11173 7175,11212 7191,11265 7209,11319 7191,11362 7124,11423 6941,11595 7093,11833 7348,11776 7406,11764 7459,11771 7472,11792 7484,11811 7517,11829 7546,11829 7607,11829 7614,11700 7553,11677 7517,11665 7517,11653 7553,11614 7620,11545 7607,11517 7503,11505 7387,11492 7355,11422 7454,11395 7528,11378 7553,11254 7498,11171 7456,11103 7302,11085 7232,11140 L 7232,11140 Z M 7334,11591 C 7359,11690 7334,11707 7230,11667 7163,11640 7156,11543 7216,11483 7267,11432 7302,11464 7334,11591 L 7334,11591 Z"/>
         <path fill="rgb(0,0,0)" stroke="none" d="M 8456,11168 C 8441,11189 8434,11297 8438,11404 L 8445,11600 8302,11379 C 8094,11059 8055,11080 8055,11513 8055,11834 8062,11868 8117,11857 8165,11848 8182,11799 8196,11640 L 8214,11436 8332,11632 C 8523,11947 8586,11912 8579,11496 8572,11175 8526,11053 8456,11168 L 8456,11168 Z"/>
         <path fill="rgb(0,0,0)" stroke="none" d="M 9268,11272 C 9323,11549 9365,11653 9418,11653 9485,11653 9471,11499 9383,11289 9314,11126 9237,11113 9268,11272 L 9268,11272 Z"/>
         <path fill="rgb(0,0,0)" stroke="none" d="M 8780,11321 C 8704,11397 8764,11476 8845,11409 8875,11385 8926,11371 8962,11379 9011,11390 8997,11411 8893,11473 8664,11612 8727,11781 8995,11743 9224,11707 9221,11716 9152,11485 9085,11258 8918,11184 8780,11321 L 8780,11321 Z M 9043,11566 C 9043,11625 8963,11667 8898,11646 8870,11637 8877,11612 8918,11572 8992,11498 9043,11494 9043,11566 L 9043,11566 Z"/>
         <path fill="rgb(0,0,0)" stroke="none" d="M 1766,6125 C 1741,6365 1691,6719 1639,7051 1512,7825 1503,8740 1616,9244 1730,9754 1810,10075 1829,10094 1878,10143 1854,9768 1796,9590 1642,9126 1538,7897 1632,7668 1662,7592 1669,7611 1670,7791 1674,7908 1697,8098 1725,8214 1753,8331 1778,8518 1778,8629 1778,8754 1794,8832 1817,8832 1871,8832 1843,8153 1787,8084 1716,7999 1716,7021 1787,6786 1847,6582 1871,5905 1818,5905 1801,5905 1778,6003 1766,6125 L 1766,6125 Z"/>
         <path fill="rgb(0,0,0)" stroke="none" d="M 14236,6257 C 14243,6344 14294,6605 14349,6836 14483,7412 14468,8318 14315,8884 14200,9313 14200,9306 14243,9318 14282,9331 14403,8932 14403,8795 14403,8745 14423,8685 14446,8662 14505,8602 14509,7033 14451,6857 14428,6788 14382,6606 14349,6451 14278,6127 14213,6014 14236,6257 L 14236,6257 Z"/>
         <path fill="rgb(0,0,0)" stroke="none" d="M 6398,14216 C 6398,14234 6553,14276 6742,14312 6930,14347 7165,14393 7262,14414 7798,14532 9854,14375 9854,14218 9854,14181 9323,14199 8583,14257 8290,14280 8006,14282 7754,14259 7137,14204 6398,14181 6398,14216 L 6398,14216 Z"/>
        </g>
       </g>
      </g>
     </g>
    </g>
   </g>
  </g>
 </g>
</svg>